<svg xmlns="http://www.w3.org/2000/svg" id="bar_search" width="324.25" height="34" viewBox="0 0 324.25 34">
    <defs>
        <style>
            .cls-4{fill:none}
        </style>
    </defs>
    <g id="Rectangle_7" fill="#fff" stroke="#03a9ff" stroke-width="2px">
        <path stroke="none" d="M0 0H324.25V34H0z"/>
        <path d="M1 1H323.25V33H1z" class="cls-4"/>
    </g>
    <g id="Group_43" transform="translate(290)">
        <path id="Rectangle_21" fill="#03a9ff" d="M0 0H34V34H0z"/>
    </g>
    <g id="baseline-search-24px" transform="translate(295 5)">
        <path id="Path_81" fill="#fff" d="M15.5 14h-.79l-.28-.27a6.51 6.51 0 1 0-.7.7l.27.28v.79l5 4.99L20.49 19zm-6 0A4.5 4.5 0 1 1 14 9.5 4.494 4.494 0 0 1 9.5 14z"/>
        <path id="Path_82" d="M0 0h24v24H0z" class="cls-4"/>
    </g>
    <text id="전체검색" fill="#474643" font-family="AppleSDGothicNeo-Regular, Apple SD Gothic Neo" font-size="12px" letter-spacing="-0.04em" transform="translate(14 21)">
        <tspan x="0" y="0">전체검색</tspan>
    </text>
    <g id="ic_arrow_drop_down_18px" transform="translate(61 11)">
        <path id="Path_83" fill="#474643" d="M5 8l4 4 4-4z" transform="translate(-3 -3.429)"/>
        <path id="Path_84" d="M0 0h12v12H0z" class="cls-4"/>
    </g>
</svg>
