<svg xmlns="http://www.w3.org/2000/svg" width="36" height="36" viewBox="0 0 36 36">
    <g>
        <path fill="none" d="M0 0h36v36H0z" transform="translate(60 3) translate(-60 -3)"/>
        <path fill="#767676" d="M9.625 4.375a5.256 5.256 0 0 0-5.25 5.25.875.875 0 1 0 1.75 0 3.5 3.5 0 0 1 3.5-3.5.875.875 0 1 0 0-1.75zM5.253 25.111a.869.869 0 0 0 .147.483l1.34 2.016a.875.875 0 0 0 .728.39h4.312a.874.874 0 0 0 .728-.39l1.34-2.015a.88.88 0 0 0 .152-.484V22.75H5.251zM9.625 0a9.62 9.62 0 0 0-7.243 15.957A15.65 15.65 0 0 1 5.249 21h2.625v-.007a2.588 2.588 0 0 0-.118-.769 17.244 17.244 0 0 0-3.4-6 7 7 0 1 1 10.538 0 17.283 17.283 0 0 0-3.4 5.986 2.6 2.6 0 0 0-.121.782V21H14a15.639 15.639 0 0 1 2.867-5.04A9.621 9.621 0 0 0 9.625 0z" transform="translate(60 3) translate(-51 1)"/>
    </g>
</svg>
