<svg xmlns="http://www.w3.org/2000/svg" width="36" height="36" viewBox="0 0 36 36">
    <g>
        <path fill="none" d="M0 0h36v36H0z" transform="translate(60 3) translate(-60 -3)"/>
        <path fill="#767676" d="M18.375 3.5H14a3.5 3.5 0 0 0-7 0H2.625A2.626 2.626 0 0 0 0 6.125v19.25A2.626 2.626 0 0 0 2.625 28h15.75A2.626 2.626 0 0 0 21 25.375V6.125A2.626 2.626 0 0 0 18.375 3.5zM10.5 2.188A1.313 1.313 0 1 1 9.188 3.5 1.309 1.309 0 0 1 10.5 2.188zm7.875 22.859a.329.329 0 0 1-.328.328H2.953a.329.329 0 0 1-.328-.328V6.453a.329.329 0 0 1 .328-.328h2.3v1.969a.658.658 0 0 0 .656.656h9.188a.658.658 0 0 0 .656-.656V6.125h2.3a.329.329 0 0 1 .328.328z" transform="translate(60 3) translate(-52 1)"/>
    </g>
</svg>
