<svg xmlns="http://www.w3.org/2000/svg" width="36" height="36" viewBox="0 0 36 36">
    <g>
        <path fill="none" d="M0 0h36v36H0z" transform="translate(60 3) translate(-60 -3)"/>
        <path fill="#767676" d="M18.375 10.5H17.5a.875.875 0 0 0-.875.875V14a7.008 7.008 0 0 1-7.7 6.966 7.213 7.213 0 0 1-6.3-7.278v-2.313a.875.875 0 0 0-.875-.875H.875a.875.875 0 0 0-.875.875v2.2a9.926 9.926 0 0 0 8.313 9.936v1.868H5.25a.875.875 0 0 0-.875.875v.875A.875.875 0 0 0 5.25 28H14a.875.875 0 0 0 .875-.875v-.875a.875.875 0 0 0-.875-.875h-3.062v-1.847A9.634 9.634 0 0 0 19.25 14v-2.625a.875.875 0 0 0-.875-.875zm-8.75 8.75a5.25 5.25 0 0 0 5.25-5.25h-4.666c-.322 0-.584-.2-.584-.437v-.875c0-.242.261-.437.584-.437h4.666V10.5h-4.666c-.322 0-.584-.2-.584-.437v-.875c0-.242.261-.437.584-.437h4.666V7h-4.666c-.322 0-.584-.2-.584-.437v-.875c0-.242.261-.437.584-.437h4.666a5.25 5.25 0 1 0-10.5 0V14a5.25 5.25 0 0 0 5.25 5.25z" transform="translate(60 3) translate(-52 1)"/>
    </g>
</svg>
