<svg xmlns="http://www.w3.org/2000/svg" width="36" height="36" viewBox="0 0 36 36">
    <g>
        <path fill="none" d="M0 0h36v36H0z" transform="translate(60 3) translate(-60 -3)"/>
        <path fill="#707070" d="M29.546 51.675a7.649 7.649 0 0 0 2.444-5.455c0-4.444-4.249-8.116-9.788-8.771C20.452 34.25 16.342 32 11.548 32 5.165 32-.006 35.977-.006 40.888a7.668 7.668 0 0 0 2.444 5.455 14.545 14.545 0 0 1-2.094 3.05 1.286 1.286 0 0 0 .933 2.166A12.769 12.769 0 0 0 8.232 49.4a15.834 15.834 0 0 0 1.578.272c1.744 3.189 5.838 5.433 10.627 5.433a14.7 14.7 0 0 0 3.322-.378 12.8 12.8 0 0 0 6.955 2.155 1.286 1.286 0 0 0 .933-2.166 14.157 14.157 0 0 1-2.101-3.041zm-21.82-5.127l-.95.617a11.3 11.3 0 0 1-2.394 1.189c.15-.261.3-.539.444-.822l.861-1.732-1.377-1.357a5.093 5.093 0 0 1-1.65-3.555c0-3.372 4.072-6.221 8.888-6.221s8.888 2.85 8.888 6.221-4.072 6.221-8.888 6.221a12.1 12.1 0 0 1-2.722-.309l-1.1-.25zm19.948 3.227L26.3 51.131l.861 1.728c.144.283.294.561.444.822a11.3 11.3 0 0 1-2.394-1.189l-.95-.617-1.105.256a12.1 12.1 0 0 1-2.722.311 10.336 10.336 0 0 1-7.294-2.761c5.627-.6 9.96-4.3 9.96-8.793 0-.189-.022-.372-.039-.555 3.577.805 6.26 3.155 6.26 5.888a5.093 5.093 0 0 1-1.647 3.555z" transform="translate(60 3) translate(-57.993 -29)"/>
    </g>
</svg>
