<svg xmlns="http://www.w3.org/2000/svg" width="15" height="15" viewBox="0 0 15 15">
    <g transform="translate(-972.5 -58)">
        <rect width="15" height="15" fill="#03a9ff" rx="2" transform="translate(972.5 58)"/>
        <path fill="#fff" d="M30.936 3.514l-3-.438L26.59.354a.659.659 0 0 0-1.18 0l-1.343 2.722-3 .438a.658.658 0 0 0-.367 1.122l2.173 2.118-.514 2.992a.658.658 0 0 0 .954.693L26 9.026l2.687 1.413a.658.658 0 0 0 .954-.693l-.514-2.992L31.3 4.636a.658.658 0 0 0-.364-1.123zm-2.868 2.895l.487 2.846L26 7.912l-2.556 1.342.487-2.846-2.068-2.014 2.858-.415L26 1.388l1.279 2.591 2.858.415-2.069 2.015z" transform="translate(954 60.013)"/>
    </g>
</svg>
