<svg xmlns="http://www.w3.org/2000/svg" width="15" height="15" viewBox="0 0 15 15">
    <g transform="translate(-972.5 -58)">
        <rect width="15" height="15" fill="#03a9ff" rx="2" transform="translate(972.5 58)"/>
        <path fill="#fff" d="M5.339 34.269l-3.521 2.9V40.3a.306.306 0 0 0 .306.306l2.14-.006a.306.306 0 0 0 .3-.306v-1.829a.306.306 0 0 1 .306-.306H6.1a.306.306 0 0 1 .306.306v1.826a.306.306 0 0 0 .306.306l2.139.006a.306.306 0 0 0 .306-.306v-3.13l-3.52-2.9a.233.233 0 0 0-.292 0zM10.9 36.24l-1.6-1.316v-2.645a.229.229 0 0 0-.229-.229H8.005a.229.229 0 0 0-.229.229v1.387l-1.71-1.407a.917.917 0 0 0-1.165 0L.068 36.24a.229.229 0 0 0-.031.323l.487.592a.229.229 0 0 0 .323.031l4.492-3.7a.233.233 0 0 1 .292 0l4.492 3.7a.229.229 0 0 0 .323-.031l.487-.592a.229.229 0 0 0-.032-.323z" transform="translate(974.515 28.95)"/>
    </g>
</svg>
